<svg width="40" height="40" viewBox="0 0 40 40" fill="none" xmlns="http://www.w3.org/2000/svg">
<path d="M37.3663 0.581158L17.9608 25.1535L12.6538 17.9605C12.3676 17.5905 11.9805 17.3793 11.575 17.3721C11.1695 17.3648 10.7779 17.5619 10.4838 17.9214C10.1897 18.2809 10.0165 18.7743 10.0011 19.296C9.98575 19.8178 10.1295 20.3266 10.4016 20.7137L16.7959 29.38C16.9378 29.5718 17.1079 29.7254 17.2964 29.8318C17.4848 29.9383 17.6878 29.9954 17.8935 30H17.9194C18.3261 29.9996 18.7165 29.7937 19.0067 29.4267L39.5357 3.42771C39.6812 3.24343 39.7971 3.02405 39.8767 2.78211C39.9564 2.54016 39.9983 2.28038 39.9999 2.0176C40.0016 1.75482 39.9631 1.49419 39.8865 1.25058C39.81 1.00698 39.6969 0.785168 39.5538 0.597823C39.4107 0.410478 39.2403 0.261265 39.0524 0.158702C38.8645 0.0561393 38.6627 0.00223463 38.4586 6.80197e-05C38.2545 -0.00209859 38.0521 0.047514 37.8629 0.146074C37.6737 0.244633 37.5014 0.390209 37.3559 0.574491L37.3663 0.581158Z" fill="currentColor"/>
</svg>
