<svg xmlns="http://www.w3.org/2000/svg" xmlns:xlink="http://www.w3.org/1999/xlink"><symbol id="icon-check" viewBox="0 0 40 40">
<path d="M37.3663 0.581158L17.9608 25.1535L12.6538 17.9605C12.3676 17.5905 11.9805 17.3793 11.575 17.3721C11.1695 17.3648 10.7779 17.5619 10.4838 17.9214C10.1897 18.2809 10.0165 18.7743 10.0011 19.296C9.98575 19.8178 10.1295 20.3266 10.4016 20.7137L16.7959 29.38C16.9378 29.5718 17.1079 29.7254 17.2964 29.8318C17.4848 29.9383 17.6878 29.9954 17.8935 30H17.9194C18.3261 29.9996 18.7165 29.7937 19.0067 29.4267L39.5357 3.42771C39.6812 3.24343 39.7971 3.02405 39.8767 2.78211C39.9564 2.54016 39.9983 2.28038 39.9999 2.0176C40.0016 1.75482 39.9631 1.49419 39.8865 1.25058C39.81 1.00698 39.6969 0.785168 39.5538 0.597823C39.4107 0.410478 39.2403 0.261265 39.0524 0.158702C38.8645 0.0561393 38.6627 0.00223463 38.4586 6.80197e-05C38.2545 -0.00209859 38.0521 0.047514 37.8629 0.146074C37.6737 0.244633 37.5014 0.390209 37.3559 0.574491L37.3663 0.581158Z" fill="currentColor"/>
</symbol><symbol id="icon-close" viewBox="0 0 22 22">
<path d="M17.5 4.5L4.5 17.5" stroke="currentColor" stroke-width="1.5"/>
<path d="M4.5 4.5L17.5 17.5" stroke="currentColor" stroke-width="1.5"/>
</symbol><symbol id="icon-del" viewBox="0 0 40 40">
<path d="M27.9999 40H11.7999C8.4999 40 5.8999 37.3 5.8999 34.1V16C5.8999 15.4 6.2999 15 6.8999 15C7.4999 15 7.8999 15.4 7.8999 16V34.1C7.8999 36.3 9.6999 38 11.7999 38H27.9999C30.1999 38 31.8999 36.2 31.8999 34.1V16C31.8999 15.4 32.2999 15 32.8999 15C33.4999 15 33.8999 15.4 33.8999 16V34.1C33.8999 37.3 31.1999 40 27.9999 40Z" fill="currentColor"/>
<path d="M33.2999 4.9H25.6999C25.1999 2.1 22.7999 0 19.8999 0C16.9999 0 14.5999 2.1 14.0999 4.9H6.4999C4.1999 4.9 2.3999 6.7 2.3999 9C2.3999 11.3 4.1999 13 6.4999 13H33.3999C35.6999 13 37.4999 11.2 37.4999 8.9C37.4999 6.6 35.5999 4.9 33.2999 4.9ZM19.8999 2C21.6999 2 23.1999 3.2 23.5999 4.9H16.0999C16.5999 3.2 18.0999 2 19.8999 2ZM33.2999 11H6.4999C5.3999 11 4.3999 10.1 4.3999 8.9C4.3999 7.8 5.2999 6.8 6.4999 6.8H33.3999C34.4999 6.8 35.4999 7.7 35.4999 8.9C35.3999 10.1 34.4999 11 33.2999 11Z" fill="currentColor"/>
<path d="M12.8999 35.1C12.2999 35.1 11.8999 34.7 11.8999 34.1V17.4C11.8999 16.8 12.2999 16.4 12.8999 16.4C13.4999 16.4 13.8999 16.8 13.8999 17.4V34.1C13.8999 34.6 13.3999 35.1 12.8999 35.1Z" fill="currentColor"/>
<path d="M26.8999 35.1C26.2999 35.1 25.8999 34.7 25.8999 34.1V17.4C25.8999 16.8 26.2999 16.4 26.8999 16.4C27.4999 16.4 27.8999 16.8 27.8999 17.4V34.1C27.8999 34.6 27.3999 35.1 26.8999 35.1Z" fill="currentColor"/>
<path d="M19.8999 35.1C19.2999 35.1 18.8999 34.7 18.8999 34.1V17.4C18.8999 16.8 19.2999 16.4 19.8999 16.4C20.4999 16.4 20.8999 16.8 20.8999 17.4V34.1C20.8999 34.6 20.3999 35.1 19.8999 35.1Z" fill="currentColor"/>
</symbol><symbol id="icon-edit" viewBox="0 0 40 40">
<path d="M12.1859 17.9321L12.1846 17.9327C12.1833 17.9341 12.1833 17.9354 12.1833 17.9354C12.093 18.027 12.0251 18.1378 11.9697 18.2558C11.9545 18.2855 11.944 18.3125 11.9321 18.3435C11.9202 18.3738 11.9037 18.4015 11.8945 18.4338L9.25188 28.2092C9.1477 28.5969 9.25847 29.0103 9.54133 29.2945C9.75496 29.5075 10.0411 29.6229 10.3332 29.6229C10.4308 29.6229 10.5303 29.6103 10.6253 29.5833L20.0248 27.0429C20.0868 27.0534 20.1462 27.0791 20.2088 27.0791C20.4963 27.0791 20.7831 26.9697 21.002 26.7508L36.2235 11.5279C37.0345 10.7163 37.4829 9.63693 37.4829 8.48901C37.4829 7.3411 37.0345 6.26176 36.2235 5.45011L33.4846 2.71121C31.862 1.08725 29.0275 1.08989 27.4075 2.71121L12.1859 17.9321ZM28.9939 4.29561C29.7679 3.51956 31.1235 3.52022 31.9002 4.29627L34.6391 7.03451C35.0281 7.42286 35.2418 7.93912 35.2418 8.48901C35.2418 9.0389 35.0281 9.55451 34.6391 9.94352L33.815 10.7677L28.1684 5.12176L28.9939 4.29561ZM26.5833 6.70681L32.2299 12.3528L20.2101 24.3732L14.5622 18.7266L26.5833 6.70681ZM13.9022 21.2354L17.9486 25.2824L11.9255 26.9116L13.5534 20.8879L13.9022 21.2354Z" fill="currentColor"/>
<path d="M28.0204 12.5002L26.4351 10.9153L19.4022 17.9502L20.9876 19.5351L28.0204 12.5002Z" fill="currentColor"/>
<path d="M1.82042 36.9007H31.9787C34.3496 36.9007 36.2762 34.9721 36.2762 32.6018V17.4251H34.0351V32.6024C34.0351 33.7371 33.1134 34.6589 31.9787 34.6589H2.94195V4.92H22.0707V2.67824H1.82042C1.2013 2.67824 0.700195 3.18 0.700195 3.79912V35.7791C0.700195 36.3982 1.20064 36.9007 1.82042 36.9007Z" fill="currentColor"/>
</symbol><symbol id="icon-list" viewBox="0 0 40 40">
<path d="M33.4822 6.20205H30.1408V4.307C30.1408 3.92138 29.8283 3.60882 29.4426 3.60882H24.3911C23.9602 1.56831 22.1445 0.0512009 20.0002 0.0512009C17.8557 0.0512009 16.0401 1.56831 15.6092 3.6088H10.5577C10.172 3.6088 9.85947 3.92136 9.85947 4.30698V6.20202H6.51802C6.1324 6.20202 5.81982 6.5146 5.81982 6.90022V39.2505C5.81982 39.6362 6.1324 39.9487 6.51802 39.9487H33.4822C33.8678 39.9487 34.1804 39.6362 34.1804 39.2505V6.90024C34.1804 6.51462 33.8678 6.20205 33.4822 6.20205ZM11.2559 5.0052H16.2177C16.5869 5.0052 16.8922 4.71776 16.9146 4.34927C17.0132 2.72218 18.3685 1.44762 20.0002 1.44762C21.6318 1.44762 22.9871 2.72218 23.0857 4.34927C23.1081 4.71776 23.4134 5.0052 23.7826 5.0052H28.7444V6.20205V7.59845V9.26089H11.2559V7.59845V6.20205V5.0052ZM32.784 38.5523H7.21627V7.59845H9.85947V9.95909C9.85947 10.3447 10.172 10.6573 10.5577 10.6573H29.4426C29.8283 10.6573 30.1408 10.3447 30.1408 9.95909V7.59845H32.784V38.5523Z" fill="currentColor"/>
<path d="M14.7475 15.2004L11.8749 18.0731L10.5904 16.7886C10.3177 16.516 9.87565 16.516 9.60292 16.7886C9.33028 17.0613 9.33028 17.5033 9.60292 17.776L11.3812 19.5543C11.5175 19.6906 11.6962 19.7588 11.8749 19.7588C12.0537 19.7588 12.2323 19.6906 12.3687 19.5543L15.735 16.188C16.0077 15.9152 16.0077 15.4732 15.735 15.2004C15.4623 14.9279 15.0203 14.9279 14.7475 15.2004Z" fill="currentColor"/>
<path d="M18.3335 16.6792C17.9478 16.6792 17.6353 16.9918 17.6353 17.3774C17.6353 17.763 17.9478 18.0756 18.3335 18.0756H29.9038C30.2894 18.0756 30.602 17.763 30.602 17.3774C30.602 16.9918 30.2894 16.6792 29.9038 16.6792H18.3335Z" fill="currentColor"/>
<path d="M14.7475 23.1094L11.8749 25.9822L10.5904 24.6976C10.3177 24.425 9.87565 24.425 9.60292 24.6976C9.33028 24.9703 9.33028 25.4123 9.60292 25.6851L11.3812 27.4633C11.5175 27.5996 11.6962 27.6678 11.8749 27.6678C12.0537 27.6678 12.2323 27.5996 12.3687 27.4633L15.735 24.097C16.0077 23.8242 16.0077 23.3822 15.735 23.1094C15.4623 22.8369 15.0203 22.8369 14.7475 23.1094Z" fill="currentColor"/>
<path d="M29.9038 24.5882H18.3335C17.9478 24.5882 17.6353 24.9007 17.6353 25.2864C17.6353 25.672 17.9478 25.9846 18.3335 25.9846H29.9038C30.2894 25.9846 30.602 25.672 30.602 25.2864C30.602 24.9007 30.2894 24.5882 29.9038 24.5882Z" fill="currentColor"/>
<path d="M14.7475 31.0184L11.8749 33.8912L10.5904 32.6065C10.3177 32.334 9.87565 32.334 9.60292 32.6065C9.33028 32.8793 9.33028 33.3213 9.60292 33.5941L11.3812 35.3723C11.5175 35.5086 11.6962 35.5767 11.8749 35.5767C12.0537 35.5767 12.2323 35.5086 12.3687 35.3723L15.735 32.006C16.0077 31.7332 16.0077 31.2912 15.735 31.0184C15.4623 30.7459 15.0203 30.7459 14.7475 31.0184Z" fill="currentColor"/>
<path d="M29.9038 32.4972H18.3335C17.9478 32.4972 17.6353 32.8098 17.6353 33.1954C17.6353 33.581 17.9478 33.8936 18.3335 33.8936H29.9038C30.2894 33.8936 30.602 33.581 30.602 33.1954C30.602 32.8098 30.2894 32.4972 29.9038 32.4972Z" fill="currentColor"/>
</symbol></svg>