<svg width="40" height="40" viewBox="0 0 40 40" fill="none" xmlns="http://www.w3.org/2000/svg">
<path d="M27.9999 40H11.7999C8.4999 40 5.8999 37.3 5.8999 34.1V16C5.8999 15.4 6.2999 15 6.8999 15C7.4999 15 7.8999 15.4 7.8999 16V34.1C7.8999 36.3 9.6999 38 11.7999 38H27.9999C30.1999 38 31.8999 36.2 31.8999 34.1V16C31.8999 15.4 32.2999 15 32.8999 15C33.4999 15 33.8999 15.4 33.8999 16V34.1C33.8999 37.3 31.1999 40 27.9999 40Z" fill="currentColor"/>
<path d="M33.2999 4.9H25.6999C25.1999 2.1 22.7999 0 19.8999 0C16.9999 0 14.5999 2.1 14.0999 4.9H6.4999C4.1999 4.9 2.3999 6.7 2.3999 9C2.3999 11.3 4.1999 13 6.4999 13H33.3999C35.6999 13 37.4999 11.2 37.4999 8.9C37.4999 6.6 35.5999 4.9 33.2999 4.9ZM19.8999 2C21.6999 2 23.1999 3.2 23.5999 4.9H16.0999C16.5999 3.2 18.0999 2 19.8999 2ZM33.2999 11H6.4999C5.3999 11 4.3999 10.1 4.3999 8.9C4.3999 7.8 5.2999 6.8 6.4999 6.8H33.3999C34.4999 6.8 35.4999 7.7 35.4999 8.9C35.3999 10.1 34.4999 11 33.2999 11Z" fill="currentColor"/>
<path d="M12.8999 35.1C12.2999 35.1 11.8999 34.7 11.8999 34.1V17.4C11.8999 16.8 12.2999 16.4 12.8999 16.4C13.4999 16.4 13.8999 16.8 13.8999 17.4V34.1C13.8999 34.6 13.3999 35.1 12.8999 35.1Z" fill="currentColor"/>
<path d="M26.8999 35.1C26.2999 35.1 25.8999 34.7 25.8999 34.1V17.4C25.8999 16.8 26.2999 16.4 26.8999 16.4C27.4999 16.4 27.8999 16.8 27.8999 17.4V34.1C27.8999 34.6 27.3999 35.1 26.8999 35.1Z" fill="currentColor"/>
<path d="M19.8999 35.1C19.2999 35.1 18.8999 34.7 18.8999 34.1V17.4C18.8999 16.8 19.2999 16.4 19.8999 16.4C20.4999 16.4 20.8999 16.8 20.8999 17.4V34.1C20.8999 34.6 20.3999 35.1 19.8999 35.1Z" fill="currentColor"/>
</svg>
