<svg width="40" height="40" viewBox="0 0 40 40" fill="none" xmlns="http://www.w3.org/2000/svg">
<path d="M33.4822 6.20205H30.1408V4.307C30.1408 3.92138 29.8283 3.60882 29.4426 3.60882H24.3911C23.9602 1.56831 22.1445 0.0512009 20.0002 0.0512009C17.8557 0.0512009 16.0401 1.56831 15.6092 3.6088H10.5577C10.172 3.6088 9.85947 3.92136 9.85947 4.30698V6.20202H6.51802C6.1324 6.20202 5.81982 6.5146 5.81982 6.90022V39.2505C5.81982 39.6362 6.1324 39.9487 6.51802 39.9487H33.4822C33.8678 39.9487 34.1804 39.6362 34.1804 39.2505V6.90024C34.1804 6.51462 33.8678 6.20205 33.4822 6.20205ZM11.2559 5.0052H16.2177C16.5869 5.0052 16.8922 4.71776 16.9146 4.34927C17.0132 2.72218 18.3685 1.44762 20.0002 1.44762C21.6318 1.44762 22.9871 2.72218 23.0857 4.34927C23.1081 4.71776 23.4134 5.0052 23.7826 5.0052H28.7444V6.20205V7.59845V9.26089H11.2559V7.59845V6.20205V5.0052ZM32.784 38.5523H7.21627V7.59845H9.85947V9.95909C9.85947 10.3447 10.172 10.6573 10.5577 10.6573H29.4426C29.8283 10.6573 30.1408 10.3447 30.1408 9.95909V7.59845H32.784V38.5523Z" fill="currentColor"/>
<path d="M14.7475 15.2004L11.8749 18.0731L10.5904 16.7886C10.3177 16.516 9.87565 16.516 9.60292 16.7886C9.33028 17.0613 9.33028 17.5033 9.60292 17.776L11.3812 19.5543C11.5175 19.6906 11.6962 19.7588 11.8749 19.7588C12.0537 19.7588 12.2323 19.6906 12.3687 19.5543L15.735 16.188C16.0077 15.9152 16.0077 15.4732 15.735 15.2004C15.4623 14.9279 15.0203 14.9279 14.7475 15.2004Z" fill="currentColor"/>
<path d="M18.3335 16.6792C17.9478 16.6792 17.6353 16.9918 17.6353 17.3774C17.6353 17.763 17.9478 18.0756 18.3335 18.0756H29.9038C30.2894 18.0756 30.602 17.763 30.602 17.3774C30.602 16.9918 30.2894 16.6792 29.9038 16.6792H18.3335Z" fill="currentColor"/>
<path d="M14.7475 23.1094L11.8749 25.9822L10.5904 24.6976C10.3177 24.425 9.87565 24.425 9.60292 24.6976C9.33028 24.9703 9.33028 25.4123 9.60292 25.6851L11.3812 27.4633C11.5175 27.5996 11.6962 27.6678 11.8749 27.6678C12.0537 27.6678 12.2323 27.5996 12.3687 27.4633L15.735 24.097C16.0077 23.8242 16.0077 23.3822 15.735 23.1094C15.4623 22.8369 15.0203 22.8369 14.7475 23.1094Z" fill="currentColor"/>
<path d="M29.9038 24.5882H18.3335C17.9478 24.5882 17.6353 24.9007 17.6353 25.2864C17.6353 25.672 17.9478 25.9846 18.3335 25.9846H29.9038C30.2894 25.9846 30.602 25.672 30.602 25.2864C30.602 24.9007 30.2894 24.5882 29.9038 24.5882Z" fill="currentColor"/>
<path d="M14.7475 31.0184L11.8749 33.8912L10.5904 32.6065C10.3177 32.334 9.87565 32.334 9.60292 32.6065C9.33028 32.8793 9.33028 33.3213 9.60292 33.5941L11.3812 35.3723C11.5175 35.5086 11.6962 35.5767 11.8749 35.5767C12.0537 35.5767 12.2323 35.5086 12.3687 35.3723L15.735 32.006C16.0077 31.7332 16.0077 31.2912 15.735 31.0184C15.4623 30.7459 15.0203 30.7459 14.7475 31.0184Z" fill="currentColor"/>
<path d="M29.9038 32.4972H18.3335C17.9478 32.4972 17.6353 32.8098 17.6353 33.1954C17.6353 33.581 17.9478 33.8936 18.3335 33.8936H29.9038C30.2894 33.8936 30.602 33.581 30.602 33.1954C30.602 32.8098 30.2894 32.4972 29.9038 32.4972Z" fill="currentColor"/>
</svg>
