<svg width="40" height="40" viewBox="0 0 40 40" fill="none" xmlns="http://www.w3.org/2000/svg">
<path d="M12.1859 17.9321L12.1846 17.9327C12.1833 17.9341 12.1833 17.9354 12.1833 17.9354C12.093 18.027 12.0251 18.1378 11.9697 18.2558C11.9545 18.2855 11.944 18.3125 11.9321 18.3435C11.9202 18.3738 11.9037 18.4015 11.8945 18.4338L9.25188 28.2092C9.1477 28.5969 9.25847 29.0103 9.54133 29.2945C9.75496 29.5075 10.0411 29.6229 10.3332 29.6229C10.4308 29.6229 10.5303 29.6103 10.6253 29.5833L20.0248 27.0429C20.0868 27.0534 20.1462 27.0791 20.2088 27.0791C20.4963 27.0791 20.7831 26.9697 21.002 26.7508L36.2235 11.5279C37.0345 10.7163 37.4829 9.63693 37.4829 8.48901C37.4829 7.3411 37.0345 6.26176 36.2235 5.45011L33.4846 2.71121C31.862 1.08725 29.0275 1.08989 27.4075 2.71121L12.1859 17.9321ZM28.9939 4.29561C29.7679 3.51956 31.1235 3.52022 31.9002 4.29627L34.6391 7.03451C35.0281 7.42286 35.2418 7.93912 35.2418 8.48901C35.2418 9.0389 35.0281 9.55451 34.6391 9.94352L33.815 10.7677L28.1684 5.12176L28.9939 4.29561ZM26.5833 6.70681L32.2299 12.3528L20.2101 24.3732L14.5622 18.7266L26.5833 6.70681ZM13.9022 21.2354L17.9486 25.2824L11.9255 26.9116L13.5534 20.8879L13.9022 21.2354Z" fill="currentColor"/>
<path d="M28.0204 12.5002L26.4351 10.9153L19.4022 17.9502L20.9876 19.5351L28.0204 12.5002Z" fill="currentColor"/>
<path d="M1.82042 36.9007H31.9787C34.3496 36.9007 36.2762 34.9721 36.2762 32.6018V17.4251H34.0351V32.6024C34.0351 33.7371 33.1134 34.6589 31.9787 34.6589H2.94195V4.92H22.0707V2.67824H1.82042C1.2013 2.67824 0.700195 3.18 0.700195 3.79912V35.7791C0.700195 36.3982 1.20064 36.9007 1.82042 36.9007Z" fill="currentColor"/>
</svg>
